<svg width="25" height="25" viewBox="0 0 25 25" fill="none" xmlns="http://www.w3.org/2000/svg">
    <path
        d="M14.757 21.1908C15.6363 21.7579 16.684 22.0052 17.7241 21.8909C18.7642 21.7764 19.7332 21.3074 20.4681 20.5625L21.1107 19.9343C21.3923 19.6461 21.55 19.2592 21.55 18.8563C21.55 18.4534 21.3923 18.0664 21.1107 17.7784L18.3836 15.0798C18.0979 14.7991 17.7133 14.6417 17.3127 14.6417C16.9122 14.6417 16.5276 14.7991 16.2419 15.0798C15.9538 15.3615 15.5669 15.5192 15.1639 15.5192C14.761 15.5192 14.3741 15.3615 14.086 15.0798L9.80261 10.7965C9.65972 10.6557 9.54624 10.4879 9.4688 10.3028C9.39135 10.1178 9.35146 9.91913 9.35146 9.71852C9.35146 9.5179 9.39135 9.3193 9.4688 9.13423C9.54624 8.94917 9.65972 8.78135 9.80261 8.64054C10.0834 8.35484 10.2407 7.97028 10.2407 7.56971C10.2407 7.16912 10.0834 6.78457 9.80261 6.49886L7.08984 3.78608C6.80168 3.50439 6.41481 3.34668 6.0119 3.34668C5.60885 3.34668 5.22197 3.50439 4.93382 3.78608L4.30557 4.42858C3.56085 5.16351 3.09184 6.1325 2.97738 7.17258C2.86292 8.21268 3.11016 9.26045 3.67746 10.1397C6.633 14.4955 10.3936 18.2464 14.757 21.1908Z"
        stroke="#161616" stroke-width="1.68" stroke-linecap="round" stroke-linejoin="round" />
</svg>
